# xmcd
#
# Track frame offsets: 
#        150
#        20685
#        37865
#
# Disc length: 764 seconds
#
# Revision: 0
# Processed by: cddbd v1.5.2PL0 Copyright (c) Steve Scherf et al.
# Submitted via: ExactAudioCopy v0.99pb5
#
DISCID=1902fa03
DTITLE=Melissa Auf Der Maur - Out Of Our Minds (Single)
DYEAR=2009
DGENRE=Alt. Rock
TTITLE0=Out Of Our Minds
TTITLE1=Lead Horse
TTITLE2=22 Below
EXTD=
EXTT0=
EXTT1=
EXTT2=
PLAYORDER=
